<svg xmlns="http://www.w3.org/2000/svg" width="1400" height="720" viewBox="0 0 1400 720" role="img" aria-labelledby="title desc">
  <title id="title">Industrial field manual architecture seed</title>
  <desc id="desc">A three-station operations rail with explicit system boundaries and review status.</desc>
  <rect width="1400" height="720" fill="#F7F2E8"/>
  <rect x="28" y="28" width="1344" height="664" fill="none" stroke="#1D1A17" stroke-width="2"/>
  <rect x="28" y="28" width="10" height="664" fill="#A4773F"/>
  <text x="70" y="78" fill="#875C2C" font-family="Courier New, monospace" font-size="14" font-weight="700" letter-spacing="2.5">PROJECT / OPERATIONS RAIL 01</text>
  <text x="70" y="142" fill="#1D1A17" font-family="Georgia, Times New Roman, serif" font-size="50" font-weight="700">Observe. Process. Review.</text>
  <text x="1330" y="136" fill="#7A644B" font-family="Courier New, monospace" font-size="13" text-anchor="end">REPLACE WITH THE ACTUAL CONTROL BOUNDARY</text>
  <line x1="70" y1="174" x2="1330" y2="174" stroke="#D7C9B3" stroke-width="2"/>
  <line x1="170" y1="338" x2="1230" y2="338" stroke="#1D1A17" stroke-width="5"/>
  <g fill="#F7F2E8" stroke="#1D1A17" stroke-width="5"><circle cx="240" cy="338" r="62"/><circle cx="700" cy="338" r="62"/><circle cx="1160" cy="338" r="62"/></g>
  <circle cx="700" cy="338" r="48" fill="#A4773F"/>
  <g font-family="Georgia, Times New Roman, serif" font-size="36" font-weight="700" text-anchor="middle"><text x="240" y="351" fill="#1D1A17">01</text><text x="700" y="351" fill="#F7F2E8">02</text><text x="1160" y="351" fill="#1D1A17">03</text></g>
  <g fill="#1D1A17" font-family="Arial, Helvetica, sans-serif" font-size="25" font-weight="700" text-anchor="middle"><text x="240" y="238">Observe source</text><text x="700" y="238">Process context</text><text x="1160" y="238">Review result</text></g>
  <g fill="#7A644B" font-family="Courier New, monospace" font-size="14" text-anchor="middle"><text x="240" y="442">SIGNALS + HISTORY</text><text x="700" y="442">SERVICE + DECISION LOGIC</text><text x="1160" y="442">EVIDENCE + CONTROL</text></g>
  <g font-family="Courier New, monospace" font-size="13">
    <rect x="78" y="478" width="324" height="56" fill="#FFFFFF" stroke="#D7C9B3" stroke-width="2"/><text x="240" y="512" fill="#1D1A17" text-anchor="middle">verified data boundary</text>
    <rect x="538" y="478" width="324" height="56" fill="#1D1A17"/><text x="700" y="512" fill="#F7F2E8" text-anchor="middle">implemented core</text>
    <rect x="998" y="478" width="324" height="56" fill="#FFFFFF" stroke="#D7C9B3" stroke-width="2"/><text x="1160" y="512" fill="#1D1A17" text-anchor="middle">observable interface</text>
  </g>
  <rect x="70" y="584" width="1260" height="62" fill="#1D1A17"/>
  <text x="98" y="622" fill="#F7F2E8" font-family="Arial, Helvetica, sans-serif" font-size="17">State the real limitation or safety boundary here.</text>
  <text x="1302" y="622" fill="#DCC8A6" font-family="Courier New, monospace" font-size="12" text-anchor="end">IMPLEMENTED · SIMULATED · PLANNED</text>
</svg>
